<?xml version="1.0" encoding="UTF-8" standalone="no"?>
<!-- Uploaded to: SVG Repo, www.svgrepo.com, Generator: SVG Repo Mixer Tools -->

<svg
   width="800px"
   height="800px"
   viewBox="0 0 36 36"
   aria-hidden="true"
   role="img"
   class="iconify iconify--twemoji"
   preserveAspectRatio="xMidYMid meet"
   version="1.1"
   id="svg1"
   sodipodi:docname="maybe-icon.svg"
   inkscape:version="1.4.2 (f4327f4, 2025-05-13)"
   xmlns:inkscape="http://www.inkscape.org/namespaces/inkscape"
   xmlns:sodipodi="http://sodipodi.sourceforge.net/DTD/sodipodi-0.dtd"
   xmlns="http://www.w3.org/2000/svg"
   xmlns:svg="http://www.w3.org/2000/svg">
  <defs
     id="defs1" />
  <sodipodi:namedview
     id="namedview1"
     pagecolor="#ffffff"
     bordercolor="#666666"
     borderopacity="1.0"
     inkscape:showpageshadow="2"
     inkscape:pageopacity="0.0"
     inkscape:pagecheckerboard="0"
     inkscape:deskcolor="#d1d1d1"
     inkscape:zoom="1.00875"
     inkscape:cx="400"
     inkscape:cy="400"
     inkscape:window-width="1920"
     inkscape:window-height="1009"
     inkscape:window-x="161"
     inkscape:window-y="1072"
     inkscape:window-maximized="1"
     inkscape:current-layer="svg1" />
  <path
     fill="#ffd42a"
     d="M17 27a3 3 0 0 1-3-3v-4a3 3 0 0 1 3-3c.603-.006 6-1 6-5c0-2-2-4-5-4c-2.441 0-4 2-4 3a3 3 0 1 1-6 0c0-4.878 4.58-9 10-9c8 0 11 5.982 11 11c0 4.145-2.277 7.313-6.413 8.92c-.9.351-1.79.587-2.587.747V24a3 3 0 0 1-3 3z"
     id="path1" />
  <circle
     fill="#ffd42a"
     cx="17"
     cy="32"
     r="3"
     id="circle1" />
  <path
     style="opacity:0.99;fill:#ffd42a;stroke:none;stroke-width:0.375;stroke-linecap:round;stroke-dasharray:none"
     d=""
     id="path4"
     transform="scale(0.045)" />
  <path
     style="opacity:0.99;fill:#00dd16;stroke:#000000;stroke-width:1.072;stroke-linecap:round;stroke-dasharray:none;stroke-opacity:1;fill-opacity:1"
     d="m 368.51102,776.60917 c -24.48849,-3.70604 -45.8863,-21.67115 -53.35788,-44.79801 -3.46666,-10.73039 -4.26752,-25.03643 -1.95423,-34.90905 5.38059,-22.96327 23.27414,-42.18034 45.66107,-49.03844 15.73676,-4.82087 32.40221,-3.39004 48.0793,4.1279 11.88022,5.69716 23.72945,17.53198 29.58096,29.54499 5.34696,10.97718 7.0981,18.20412 7.0981,29.29381 0,18.5348 -6.16937,33.39998 -19.37334,46.68033 -6.66647,6.70502 -9.60191,8.82781 -17.37262,12.56319 -12.9662,6.23286 -25.85306,8.42827 -38.36136,6.53528 z"
     id="path7"
     transform="scale(0.045)" />
  <path
     style="opacity:0.99;fill:#00db16;stroke:#000000;stroke-width:1.072;stroke-linecap:round;stroke-dasharray:none;stroke-opacity:1;fill-opacity:1"
     d="m 361.70773,597.35973 c -24.0353,-6.52193 -41.91406,-24.55285 -48.02063,-48.42931 -1.77555,-6.94228 -1.91403,-11.32336 -1.90045,-60.11749 0.0164,-59.06506 0.0394,-59.30491 7.06178,-73.83507 3.16261,-6.54384 5.74434,-10.05384 12.10262,-16.45414 12.93339,-13.01892 25.19737,-18.52913 45.13543,-20.27942 45.07764,-3.95719 94.65149,-28.03209 116.68534,-56.6667 22.31613,-29.0015 24.76884,-67.26043 6.14125,-95.79504 -17.97268,-27.53137 -48.67598,-44.38273 -87.34908,-47.9411 -28.86531,-2.65594 -54.14448,5.26299 -75.92273,23.78349 -7.36676,6.26478 -16.09339,17.47148 -20.41657,26.21883 -3.05779,6.18701 -3.7345,8.80169 -4.47026,17.27215 -1.77557,20.44147 -7.4225,33.46045 -19.94486,45.98281 -6.10615,6.10615 -9.44824,8.50987 -16.87012,12.13346 -14.77893,7.21553 -27.50604,9.01452 -42.25881,5.97333 -28.0707,-5.7866 -48.36878,-27.54469 -52.78408,-56.58077 -2.02798,-13.33647 1.38174,-40.71825 7.47065,-59.99305 19.39042,-61.38155 72.24379,-113.106624 137.85883,-134.915866 29.54487,-9.820177 44.61831,-12.129655 78.74794,-12.065377 27.14906,0.05113 37.69341,1.02213 59.23763,5.455026 96.87267,19.932324 163.05993,92.968307 178.72779,197.221647 2.62865,17.49092 3.57098,46.46061 2.0154,61.95787 -6.46648,64.421 -37.24229,115.24664 -91.29128,150.76573 -27.72296,18.21856 -66.88622,33.93038 -102.26324,41.02676 l -5.61831,1.12699 -0.36685,22.00371 c -0.3301,19.79916 -0.59332,22.64928 -2.62717,28.44731 -6.93071,19.75777 -21.5402,34.61481 -41.17696,41.8747 -10.78167,3.98608 -27.06003,4.77181 -37.90326,1.82952 z"
     id="path8"
     transform="scale(0.045)" />
</svg>
