<?xml version="1.0" encoding="UTF-8" standalone="no"?>
<!-- Created with Inkscape (http://www.inkscape.org/) -->

<svg
   width="210mm"
   height="297mm"
   viewBox="0 0 210 297"
   version="1.1"
   id="svg1"
   xml:space="preserve"
   inkscape:version="1.4.2 (f4327f4, 2025-05-13)"
   sodipodi:docname="drawing.svg"
   inkscape:export-filename="drawing.png"
   inkscape:export-xdpi="4.0599575"
   inkscape:export-ydpi="4.0599575"
   xmlns:inkscape="http://www.inkscape.org/namespaces/inkscape"
   xmlns:sodipodi="http://sodipodi.sourceforge.net/DTD/sodipodi-0.dtd"
   xmlns="http://www.w3.org/2000/svg"
   xmlns:svg="http://www.w3.org/2000/svg"><sodipodi:namedview
     id="namedview1"
     pagecolor="#ffffff"
     bordercolor="#666666"
     borderopacity="1.0"
     inkscape:showpageshadow="2"
     inkscape:pageopacity="0.0"
     inkscape:pagecheckerboard="0"
     inkscape:deskcolor="#d1d1d1"
     inkscape:document-units="mm"
     inkscape:zoom="0.71891835"
     inkscape:cx="397.12437"
     inkscape:cy="561.25984"
     inkscape:window-width="1920"
     inkscape:window-height="1009"
     inkscape:window-x="161"
     inkscape:window-y="1072"
     inkscape:window-maximized="1"
     inkscape:current-layer="layer1" /><defs
     id="defs1"><rect
       x="50.075228"
       y="292.10549"
       width="134.92492"
       height="146.05275"
       id="rect15" /></defs><g
     inkscape:label="Layer 1"
     inkscape:groupmode="layer"
     id="layer1"><path
       style="opacity:0.99;fill:#0000ff;stroke:none;stroke-width:0.343958;fill-opacity:1"
       id="path3"
       sodipodi:type="arc"
       sodipodi:cx="152.3643"
       sodipodi:cy="37.171005"
       sodipodi:rx="26.130112"
       sodipodi:ry="26.130112"
       sodipodi:start="1.586155"
       sodipodi:end="1.5707955"
       sodipodi:open="true"
       sodipodi:arc-type="arc"
       d="M 151.963,63.298035 A 26.130112,26.130112 0 0 1 126.23593,36.870024 26.130112,26.130112 0 0 1 152.56495,11.041664 26.130112,26.130112 0 0 1 178.49422,37.27132 26.130112,26.130112 0 0 1 152.3643,63.301117" /><path
       style="fill:none;stroke:#000000;stroke-width:6.03626;stroke-linecap:round;stroke-linejoin:miter;stroke-dasharray:none;stroke-opacity:1;paint-order:normal"
       d="M 140.46514,53.486532 C 103.53858,98.141721 103.53858,98.141721 103.53858,98.141721"
       id="path8" /><path
       style="opacity:0.99;fill:#0000ff;stroke:none;stroke-width:0.343958;fill-opacity:1"
       id="path4"
       sodipodi:type="arc"
       sodipodi:cx="30.546469"
       sodipodi:cy="163.4052"
       sodipodi:rx="26.130112"
       sodipodi:ry="26.130112"
       sodipodi:start="1.586155"
       sodipodi:end="1.5707955"
       sodipodi:open="true"
       sodipodi:arc-type="arc"
       d="M 30.145161,189.53223 A 26.130112,26.130112 0 0 1 4.4180905,163.10422 26.130112,26.130112 0 0 1 30.747118,137.27586 a 26.130112,26.130112 0 0 1 25.92927,26.22965 26.130112,26.130112 0 0 1 -26.129919,26.0298" /><path
       style="fill:none;stroke:#000000;stroke-width:6.06212;stroke-linecap:round;stroke-linejoin:miter;stroke-dasharray:none;stroke-opacity:1"
       d="M 44.29872,147.44477 C 90.586577,107.88043 90.032233,107.59983 90.032233,107.59983"
       id="path9" /><path
       style="opacity:0.99;fill:#ff0000;stroke:#ff0000;stroke-width:0.343958"
       id="path6"
       sodipodi:type="arc"
       sodipodi:cx="99.55204"
       sodipodi:cy="104.70445"
       sodipodi:rx="28.890335"
       sodipodi:ry="28.890335"
       sodipodi:start="1.586155"
       sodipodi:end="1.5707963"
       sodipodi:arc-type="slice"
       d="M 99.10834,133.59138 A 28.890335,28.890335 0 0 1 70.663622,104.37167 28.890335,28.890335 0 0 1 99.773896,75.814969 28.890335,28.890335 0 0 1 128.44216,104.81538 28.890335,28.890335 0 0 1 99.55204,133.59479 v -28.89034 z" /><path
       style="fill:none;stroke:#000000;stroke-width:6.57448;stroke-linecap:round;stroke-linejoin:miter;stroke-dasharray:none;stroke-opacity:1"
       d="M 36.821047,39.03977 C 83.209101,89.18332 82.614384,88.568061 82.614384,88.568061"
       id="path7" /><path
       style="fill:none;stroke:#000000;stroke-width:6.57773;stroke-linecap:round;stroke-linejoin:miter;stroke-dasharray:none;stroke-opacity:1"
       d="m 118.16246,121.47475 c 56.25872,55.08942 56.25872,54.78506 56.25872,54.78506"
       id="path10" /><path
       style="opacity:0.99;fill:#0000ff;stroke:none;stroke-width:0.336571;fill-opacity:1"
       id="path1"
       sodipodi:type="arc"
       sodipodi:cx="36.986988"
       sodipodi:cy="39.931229"
       sodipodi:rx="30.270058"
       sodipodi:ry="30.366144"
       sodipodi:start="1.586155"
       sodipodi:end="1.5707955"
       sodipodi:arc-type="arc"
       d="M 36.522098,70.293791 A 30.270058,30.366144 0 0 1 6.7189385,39.581455 30.270058,30.366144 0 0 1 37.219427,9.5659797 30.270058,30.366144 0 0 1 67.256823,40.047805 30.270058,30.366144 0 0 1 36.986988,70.297373"
       sodipodi:open="true" /><path
       style="opacity:0.99;fill:#0000ff;fill-opacity:1;stroke:none;stroke-width:0.362069;stroke-opacity:1"
       id="path5"
       sodipodi:type="arc"
       sodipodi:cx="175.3662"
       sodipodi:cy="177.94238"
       sodipodi:rx="29.249308"
       sodipodi:ry="29.249308"
       sodipodi:start="1.586155"
       sodipodi:end="1.5583708"
       sodipodi:arc-type="arc"
       d="m 174.91698,207.18824 a 29.249308,29.249308 0 0 1 -28.79906,-29.49192 29.249308,29.249308 0 0 1 29.29117,-29.00321 29.249308,29.249308 0 0 1 29.20597,29.089 29.249308,29.249308 0 0 1 -28.88544,29.40732"
       sodipodi:open="true" /><path
       style="opacity:0.99;fill:#6060ff;fill-opacity:1;stroke:none;stroke-width:6.32447;stroke-linecap:round;stroke-dasharray:none;stroke-opacity:1;paint-order:normal"
       id="path11"
       sodipodi:type="arc"
       sodipodi:cx="37.171001"
       sodipodi:cy="18.033371"
       sodipodi:rx="5.8884759"
       sodipodi:ry="3.6802123"
       sodipodi:start="1.586155"
       sodipodi:end="1.5583708"
       sodipodi:open="true"
       sodipodi:arc-type="arc"
       d="m 37.080566,21.713149 a 5.8884759,3.6802123 0 0 1 -5.797832,-3.710738 5.8884759,3.6802123 0 0 1 5.896903,-3.649248 5.8884759,3.6802123 0 0 1 5.879752,3.660042 5.8884759,3.6802123 0 0 1 -5.815222,3.700094" /><path
       style="opacity:0.99;fill:#6060ff;fill-opacity:1;stroke:none;stroke-width:7.99999;stroke-linecap:round;stroke-dasharray:none;stroke-opacity:1;paint-order:normal"
       id="path12"
       sodipodi:type="arc"
       sodipodi:cx="152.73235"
       sodipodi:cy="18.769518"
       sodipodi:rx="6.6245351"
       sodipodi:ry="3.6802974"
       sodipodi:start="1.586155"
       sodipodi:end="1.5583708"
       sodipodi:open="true"
       sodipodi:arc-type="arc"
       d="m 152.63061,22.449381 a 6.6245351,3.6802974 0 0 1 -6.52257,-3.710824 6.6245351,3.6802974 0 0 1 6.63402,-3.649333 6.6245351,3.6802974 0 0 1 6.61472,3.660128 6.6245351,3.6802974 0 0 1 -6.54212,3.700179" /><path
       style="opacity:0.99;fill:#6060ff;fill-opacity:1;stroke:none;stroke-width:7.99999;stroke-linecap:round;stroke-dasharray:none;stroke-opacity:1;paint-order:normal"
       id="path13"
       sodipodi:type="arc"
       sodipodi:cx="29.994421"
       sodipodi:cy="147.76395"
       sodipodi:rx="6.0724902"
       sodipodi:ry="4.2323418"
       sodipodi:start="1.586155"
       sodipodi:end="1.5583708"
       sodipodi:open="true"
       sodipodi:arc-type="arc"
       d="m 29.901159,151.99579 a 6.0724902,4.2323418 0 0 1 -5.979013,-4.26745 6.0724902,4.2323418 0 0 1 6.081181,-4.19673 6.0724902,4.2323418 0 0 1 6.063493,4.20915 6.0724902,4.2323418 0 0 1 -5.996947,4.2552" /><path
       style="opacity:0.99;fill:#6060ff;fill-opacity:1;stroke:none;stroke-width:7.99999;stroke-linecap:round;stroke-dasharray:none;stroke-opacity:1;paint-order:normal"
       id="path14"
       sodipodi:type="arc"
       sodipodi:cx="177.20633"
       sodipodi:cy="158.80484"
       sodipodi:rx="7.1765795"
       sodipodi:ry="4.2323418"
       sodipodi:start="1.586155"
       sodipodi:end="1.5583708"
       sodipodi:open="true"
       sodipodi:arc-type="arc"
       d="m 177.09611,163.03668 a 7.1765795,4.2323418 0 0 1 -7.06611,-4.26744 7.1765795,4.2323418 0 0 1 7.18685,-4.19674 7.1765795,4.2323418 0 0 1 7.16595,4.20915 7.1765795,4.2323418 0 0 1 -7.0873,4.25521" /><path
       style="opacity:0.99;fill:#ff6760;fill-opacity:1;stroke:none;stroke-width:6.88525;stroke-linecap:round;stroke-dasharray:none;stroke-opacity:1;paint-order:normal"
       id="path15"
       sodipodi:type="arc"
       sodipodi:cx="99.736053"
       sodipodi:cy="84.64679"
       sodipodi:rx="8.0966539"
       sodipodi:ry="3.6802475"
       sodipodi:start="1.586155"
       sodipodi:end="1.5583708"
       sodipodi:open="true"
       sodipodi:arc-type="arc"
       d="m 99.611704,88.326603 a 8.0966539,3.6802475 0 0 1 -7.972018,-3.710774 8.0966539,3.6802475 0 0 1 8.108242,-3.649283 8.0966539,3.6802475 0 0 1 8.084662,3.660078 8.0966539,3.6802475 0 0 1 -7.995934,3.700129" /><text
       xml:space="preserve"
       transform="scale(0.26458333)"
       id="text15"
       style="font-style:normal;font-variant:normal;font-weight:normal;font-stretch:normal;font-size:192px;line-height:1.25;font-family:Roboto;-inkscape-font-specification:Roboto;text-align:center;white-space:pre;shape-inside:url(#rect15);display:inline;fill:#000000;fill-opacity:1"><tspan
         x="50.076172"
         y="606.1582"
         id="tspan2"><tspan
           dx="0 113.90625"
           id="tspan1">SS</tspan></tspan></text><text
       xml:space="preserve"
       style="font-style:normal;font-variant:normal;font-weight:normal;font-stretch:normal;font-size:74.0833px;line-height:1.25;font-family:Orbitron;-inkscape-font-specification:Orbitron;text-align:center;text-anchor:middle;fill:#cb0000;fill-opacity:1;stroke-width:0.264583"
       x="33.122677"
       y="130.28252"
       id="text16"><tspan
         sodipodi:role="line"
         id="tspan16"
         style="font-style:normal;font-variant:normal;font-weight:normal;font-stretch:normal;font-size:74.0833px;font-family:Orbitron;-inkscape-font-specification:Orbitron;fill:#008000;fill-opacity:1;stroke-width:0.264583"
         x="33.122677"
         y="130.28252">S</tspan></text><text
       xml:space="preserve"
       style="font-style:normal;font-variant:normal;font-weight:normal;font-stretch:normal;font-size:74.08333333px;line-height:1.25;font-family:Orbitron;-inkscape-font-specification:Orbitron;text-align:center;text-anchor:middle;stroke-width:0.264583;fill:#008000"
       x="98.263939"
       y="192.11151"
       id="text17"><tspan
         sodipodi:role="line"
         id="tspan17"
         style="font-style:normal;font-variant:normal;font-weight:normal;font-stretch:normal;font-family:Orbitron;-inkscape-font-specification:Orbitron;stroke-width:0.264583;fill:#008000;font-size:74.08333333px"
         x="98.263939"
         y="192.11151">T</tspan></text><text
       xml:space="preserve"
       style="font-style:normal;font-variant:normal;font-weight:normal;font-stretch:normal;font-size:74.0833px;line-height:1.25;font-family:Orbitron;-inkscape-font-specification:Orbitron;text-align:center;text-anchor:middle;fill:#008000;stroke-width:0.264583"
       x="167.82155"
       y="130.28252"
       id="text18"><tspan
         sodipodi:role="line"
         id="tspan18"
         style="font-style:normal;font-variant:normal;font-weight:normal;font-stretch:normal;font-size:74.0833px;font-family:Orbitron;-inkscape-font-specification:Orbitron;fill:#008000;stroke-width:0.264583"
         x="167.82155"
         y="130.28252">M<tspan
   style="font-size:74.0833px;fill:#008000"
   id="tspan19" /></tspan></text></g></svg>
