<?xml version="1.0" encoding="UTF-8" standalone="no"?>
<!-- Created with Inkscape (http://www.inkscape.org/) -->

<svg
   width="210mm"
   height="297mm"
   viewBox="0 0 210 297"
   version="1.1"
   id="svg1"
   xml:space="preserve"
   inkscape:version="1.4.2 (f4327f4, 2025-05-13)"
   sodipodi:docname="drawing2.svg"
   inkscape:export-filename="drawing.png"
   inkscape:export-xdpi="300"
   inkscape:export-ydpi="300"
   xmlns:inkscape="http://www.inkscape.org/namespaces/inkscape"
   xmlns:sodipodi="http://sodipodi.sourceforge.net/DTD/sodipodi-0.dtd"
   xmlns="http://www.w3.org/2000/svg"
   xmlns:svg="http://www.w3.org/2000/svg"><sodipodi:namedview
     id="namedview1"
     pagecolor="#ffffff"
     bordercolor="#666666"
     borderopacity="1.0"
     inkscape:showpageshadow="2"
     inkscape:pageopacity="0.0"
     inkscape:pagecheckerboard="0"
     inkscape:deskcolor="#d1d1d1"
     inkscape:document-units="mm"
     inkscape:zoom="0.71891835"
     inkscape:cx="397.12437"
     inkscape:cy="561.25984"
     inkscape:window-width="1920"
     inkscape:window-height="1009"
     inkscape:window-x="161"
     inkscape:window-y="1072"
     inkscape:window-maximized="1"
     inkscape:current-layer="layer1" /><defs
     id="defs1"><rect
       x="50.075228"
       y="292.10549"
       width="134.92492"
       height="146.05275"
       id="rect15" /></defs><g
     inkscape:label="Layer 1"
     inkscape:groupmode="layer"
     id="layer1"><path
       style="opacity:0.99;fill:#d9ff00;stroke:none;stroke-width:0.343958;fill-opacity:1"
       id="path3"
       sodipodi:type="arc"
       sodipodi:cx="152.3643"
       sodipodi:cy="37.171005"
       sodipodi:rx="26.130112"
       sodipodi:ry="26.130112"
       sodipodi:start="1.586155"
       sodipodi:end="1.5707955"
       sodipodi:open="true"
       sodipodi:arc-type="arc"
       d="M 151.963,63.298035 A 26.130112,26.130112 0 0 1 126.23593,36.870024 26.130112,26.130112 0 0 1 152.56495,11.041664 26.130112,26.130112 0 0 1 178.49422,37.27132 26.130112,26.130112 0 0 1 152.3643,63.301117" /><path
       style="fill:none;stroke:#7abfff;stroke-width:6.03626;stroke-linecap:round;stroke-linejoin:miter;stroke-dasharray:none;stroke-opacity:1;paint-order:normal"
       d="M 140.46514,53.486532 C 103.53858,98.141721 103.53858,98.141721 103.53858,98.141721"
       id="path8" /><path
       style="opacity:0.99;fill:#d8ff00;stroke:none;stroke-width:0.343958;fill-opacity:1"
       id="path4"
       sodipodi:type="arc"
       sodipodi:cx="30.546469"
       sodipodi:cy="163.4052"
       sodipodi:rx="26.130112"
       sodipodi:ry="26.130112"
       sodipodi:start="1.586155"
       sodipodi:end="1.5707955"
       sodipodi:open="true"
       sodipodi:arc-type="arc"
       d="M 30.145161,189.53223 A 26.130112,26.130112 0 0 1 4.4180905,163.10422 26.130112,26.130112 0 0 1 30.747118,137.27586 a 26.130112,26.130112 0 0 1 25.92927,26.22965 26.130112,26.130112 0 0 1 -26.129919,26.0298" /><path
       style="fill:none;stroke:#7cc0ff;stroke-width:6.06212;stroke-linecap:round;stroke-linejoin:miter;stroke-dasharray:none;stroke-opacity:1"
       d="M 44.29872,147.44477 C 90.586577,107.88043 90.032233,107.59983 90.032233,107.59983"
       id="path9" /><path
       style="opacity:0.99;fill:#ff0000;stroke:#ff0000;stroke-width:0.343958"
       id="path6"
       sodipodi:type="arc"
       sodipodi:cx="99.55204"
       sodipodi:cy="104.70445"
       sodipodi:rx="28.890335"
       sodipodi:ry="28.890335"
       sodipodi:start="1.586155"
       sodipodi:end="1.5707963"
       sodipodi:arc-type="slice"
       d="M 99.10834,133.59138 A 28.890335,28.890335 0 0 1 70.663622,104.37167 28.890335,28.890335 0 0 1 99.773896,75.814969 28.890335,28.890335 0 0 1 128.44216,104.81538 28.890335,28.890335 0 0 1 99.55204,133.59479 v -28.89034 z" /><path
       style="fill:none;stroke:#7abfff;stroke-width:6.57448;stroke-linecap:round;stroke-linejoin:miter;stroke-dasharray:none;stroke-opacity:1"
       d="M 35.829504,39.993749 C 84.253415,88.174159 83.63374,87.584045 83.63374,87.584045"
       id="path7" /><path
       style="fill:none;stroke:#7abfff;stroke-width:6.57773;stroke-linecap:round;stroke-linejoin:miter;stroke-dasharray:none;stroke-opacity:1"
       d="m 117.58713,122.07961 c 57.41861,53.87941 57.41213,53.57511 57.41213,53.57511"
       id="path10" /><path
       style="opacity:0.99;fill:#d9ff00;stroke:none;stroke-width:0.336571;fill-opacity:1"
       id="path1"
       sodipodi:type="arc"
       sodipodi:cx="36.986988"
       sodipodi:cy="39.931229"
       sodipodi:rx="30.270058"
       sodipodi:ry="30.366144"
       sodipodi:start="1.586155"
       sodipodi:end="1.5707955"
       sodipodi:arc-type="arc"
       d="M 36.522098,70.293791 A 30.270058,30.366144 0 0 1 6.7189385,39.581455 30.270058,30.366144 0 0 1 37.219427,9.5659797 30.270058,30.366144 0 0 1 67.256823,40.047805 30.270058,30.366144 0 0 1 36.986988,70.297373"
       sodipodi:open="true" /><path
       style="opacity:0.99;fill:#d9ff00;fill-opacity:1;stroke:none;stroke-width:0.362069;stroke-opacity:1"
       id="path5"
       sodipodi:type="arc"
       sodipodi:cx="175.3662"
       sodipodi:cy="177.94238"
       sodipodi:rx="29.249308"
       sodipodi:ry="29.249308"
       sodipodi:start="1.586155"
       sodipodi:end="1.5583708"
       sodipodi:arc-type="arc"
       d="m 174.91698,207.18824 a 29.249308,29.249308 0 0 1 -28.79906,-29.49192 29.249308,29.249308 0 0 1 29.29117,-29.00321 29.249308,29.249308 0 0 1 29.20597,29.089 29.249308,29.249308 0 0 1 -28.88544,29.40732"
       sodipodi:open="true" /><path
       style="opacity:0.99;fill:#ffffff;fill-opacity:1;stroke:none;stroke-width:7.33134;stroke-linecap:round;stroke-dasharray:none;stroke-opacity:1;paint-order:normal"
       id="path11"
       sodipodi:type="arc"
       sodipodi:cx="37.355015"
       sodipodi:cy="18.033371"
       sodipodi:rx="7.9126396"
       sodipodi:ry="3.6802123"
       sodipodi:start="1.586155"
       sodipodi:end="1.5583708"
       sodipodi:open="true"
       sodipodi:arc-type="arc"
       d="m 37.233492,21.713149 a 7.9126396,3.6802123 0 0 1 -7.790837,-3.710738 7.9126396,3.6802123 0 0 1 7.923964,-3.649248 7.9126396,3.6802123 0 0 1 7.900917,3.660042 7.9126396,3.6802123 0 0 1 -7.814205,3.700094" /><path
       style="opacity:0.99;fill:#ffffff;fill-opacity:1;stroke:none;stroke-width:7.99999;stroke-linecap:round;stroke-dasharray:none;stroke-opacity:1;paint-order:normal"
       id="path12"
       sodipodi:type="arc"
       sodipodi:cx="152.73235"
       sodipodi:cy="18.769518"
       sodipodi:rx="6.6245351"
       sodipodi:ry="3.6802974"
       sodipodi:start="1.586155"
       sodipodi:end="1.5583708"
       sodipodi:open="true"
       sodipodi:arc-type="arc"
       d="m 152.63061,22.449381 a 6.6245351,3.6802974 0 0 1 -6.52257,-3.710824 6.6245351,3.6802974 0 0 1 6.63402,-3.649333 6.6245351,3.6802974 0 0 1 6.61472,3.660128 6.6245351,3.6802974 0 0 1 -6.54212,3.700179" /><path
       style="opacity:0.99;fill:#ffffff;fill-opacity:1;stroke:none;stroke-width:8.91712;stroke-linecap:round;stroke-dasharray:none;stroke-opacity:1;paint-order:normal"
       id="path13"
       sodipodi:type="arc"
       sodipodi:cx="31.83457"
       sodipodi:cy="147.76395"
       sodipodi:rx="7.5446091"
       sodipodi:ry="4.2323418"
       sodipodi:start="1.586155"
       sodipodi:end="1.5583708"
       sodipodi:open="true"
       sodipodi:arc-type="arc"
       d="m 31.718699,151.99579 a 7.5446091,4.2323418 0 0 1 -7.428471,-4.26745 7.5446091,4.2323418 0 0 1 7.555407,-4.19673 7.5446091,4.2323418 0 0 1 7.533431,4.20915 7.5446091,4.2323418 0 0 1 -7.450753,4.2552" /><path
       style="opacity:0.99;fill:#ffffff;fill-opacity:1;stroke:none;stroke-width:7.99999;stroke-linecap:round;stroke-dasharray:none;stroke-opacity:1;paint-order:normal"
       id="path14"
       sodipodi:type="arc"
       sodipodi:cx="176.10223"
       sodipodi:cy="159.17287"
       sodipodi:rx="7.1765795"
       sodipodi:ry="4.2323418"
       sodipodi:start="1.586155"
       sodipodi:end="1.5583708"
       sodipodi:open="true"
       sodipodi:arc-type="arc"
       d="m 175.99202,163.40471 a 7.1765795,4.2323418 0 0 1 -7.06611,-4.26745 7.1765795,4.2323418 0 0 1 7.18685,-4.19673 7.1765795,4.2323418 0 0 1 7.16595,4.20915 7.1765795,4.2323418 0 0 1 -7.08731,4.2552" /><path
       style="opacity:0.99;fill:#ff6760;fill-opacity:1;stroke:none;stroke-width:6.88525;stroke-linecap:round;stroke-dasharray:none;stroke-opacity:1;paint-order:normal"
       id="path15"
       sodipodi:type="arc"
       sodipodi:cx="99.736053"
       sodipodi:cy="84.64679"
       sodipodi:rx="8.0966539"
       sodipodi:ry="3.6802475"
       sodipodi:start="1.586155"
       sodipodi:end="1.5583708"
       sodipodi:open="true"
       sodipodi:arc-type="arc"
       d="m 99.611704,88.326603 a 8.0966539,3.6802475 0 0 1 -7.972018,-3.710774 8.0966539,3.6802475 0 0 1 8.108242,-3.649283 8.0966539,3.6802475 0 0 1 8.084662,3.660078 8.0966539,3.6802475 0 0 1 -7.995934,3.700129" /></g></svg>
