<?xml version="1.0" encoding="UTF-8" standalone="no"?>
<!-- Created with Inkscape (http://www.inkscape.org/) -->

<svg
   width="210mm"
   height="297mm"
   viewBox="0 0 210 297"
   version="1.1"
   id="svg1"
   xml:space="preserve"
   inkscape:version="1.4.2 (f4327f4, 2025-05-13)"
   sodipodi:docname="drawing.svg"
   inkscape:export-filename="drawing.png"
   inkscape:export-xdpi="4.0599575"
   inkscape:export-ydpi="4.0599575"
   xmlns:inkscape="http://www.inkscape.org/namespaces/inkscape"
   xmlns:sodipodi="http://sodipodi.sourceforge.net/DTD/sodipodi-0.dtd"
   xmlns="http://www.w3.org/2000/svg"
   xmlns:svg="http://www.w3.org/2000/svg"><sodipodi:namedview
     id="namedview1"
     pagecolor="#ffffff"
     bordercolor="#666666"
     borderopacity="1.0"
     inkscape:showpageshadow="2"
     inkscape:pageopacity="0.0"
     inkscape:pagecheckerboard="0"
     inkscape:deskcolor="#d1d1d1"
     inkscape:document-units="mm"
     inkscape:zoom="0.71891835"
     inkscape:cx="397.12437"
     inkscape:cy="561.25984"
     inkscape:window-width="1920"
     inkscape:window-height="1057"
     inkscape:window-x="-8"
     inkscape:window-y="-8"
     inkscape:window-maximized="1"
     inkscape:current-layer="layer1"
     inkscape:export-bgcolor="#ffffff00" /><defs
     id="defs1"><rect
       x="50.075228"
       y="292.10549"
       width="134.92492"
       height="146.05275"
       id="rect15" /></defs><g
     inkscape:label="Layer 1"
     inkscape:groupmode="layer"
     id="layer1"><path
       style="opacity:0.99;fill:#0000ff;fill-opacity:1;stroke:none;stroke-width:0.346132"
       id="path3"
       sodipodi:type="arc"
       sodipodi:cx="152.3643"
       sodipodi:cy="37.520191"
       sodipodi:rx="26.130112"
       sodipodi:ry="26.460623"
       sodipodi:start="1.586155"
       sodipodi:end="1.5707955"
       sodipodi:open="true"
       sodipodi:arc-type="arc"
       d="M 151.963,63.977693 A 26.130112,26.460623 0 0 1 126.23593,37.215403 26.130112,26.460623 0 0 1 152.56495,11.060349 26.130112,26.460623 0 0 1 178.49422,37.621775 26.130112,26.460623 0 0 1 152.3643,63.980814"
       inkscape:export-filename="path3.png"
       inkscape:export-xdpi="8.119915"
       inkscape:export-ydpi="8.119915" /><path
       style="fill:none;stroke:#000000;stroke-width:6.0743;stroke-linecap:round;stroke-linejoin:miter;stroke-dasharray:none;stroke-opacity:1;paint-order:normal"
       d="M 140.46514,54.042076 C 103.53858,99.26209 103.53858,99.26209 103.53858,99.26209"
       id="path8" /><path
       style="opacity:0.99;fill:#0000ff;fill-opacity:1;stroke:none;stroke-width:0.346132"
       id="path4"
       sodipodi:type="arc"
       sodipodi:cx="30.546469"
       sodipodi:cy="165.35104"
       sodipodi:rx="26.130112"
       sodipodi:ry="26.460623"
       sodipodi:start="1.586155"
       sodipodi:end="1.5707955"
       sodipodi:open="true"
       sodipodi:arc-type="arc"
       d="M 30.145161,191.80855 A 26.130112,26.460623 0 0 1 4.4180905,165.04626 26.130112,26.460623 0 0 1 30.747118,138.8912 a 26.130112,26.460623 0 0 1 25.92927,26.56143 26.130112,26.460623 0 0 1 -26.129919,26.35904" /><path
       style="fill:none;stroke:#000000;stroke-width:6.10034;stroke-linecap:round;stroke-linejoin:miter;stroke-dasharray:none;stroke-opacity:1"
       d="M 44.29872,149.18875 C 90.586577,109.12401 90.032233,108.83981 90.032233,108.83981"
       id="path9" /><path
       style="opacity:0.99;fill:#ff0000;stroke:#ff0000;stroke-width:0.346132"
       id="path6"
       sodipodi:type="arc"
       sodipodi:cx="99.55204"
       sodipodi:cy="105.90784"
       sodipodi:rx="28.890335"
       sodipodi:ry="29.25576"
       sodipodi:start="1.586155"
       sodipodi:end="1.5707963"
       sodipodi:arc-type="slice"
       d="M 99.10834,135.16015 A 28.890335,29.25576 0 0 1 70.663622,105.57085 28.890335,29.25576 0 0 1 99.773896,76.652939 28.890335,29.25576 0 0 1 128.44216,106.02017 28.890335,29.25576 0 0 1 99.55204,135.1636 v -29.25576 z" /><path
       style="fill:none;stroke:#000000;stroke-width:6.61593;stroke-linecap:round;stroke-linejoin:miter;stroke-dasharray:none;stroke-opacity:1"
       d="M 36.821047,39.41259 C 83.209101,90.190379 82.614384,89.567341 82.614384,89.567341"
       id="path7" /><path
       style="fill:none;stroke:#000000;stroke-width:6.6192;stroke-linecap:round;stroke-linejoin:miter;stroke-dasharray:none;stroke-opacity:1"
       d="m 118.16246,122.89025 c 56.25872,55.78621 56.25872,55.47806 56.25872,55.47806"
       id="path10" /><path
       style="opacity:0.99;fill:#0000ff;fill-opacity:1;stroke:none;stroke-width:0.338696"
       id="path1"
       sodipodi:type="arc"
       sodipodi:cx="36.986988"
       sodipodi:cy="40.315315"
       sodipodi:rx="30.270058"
       sodipodi:ry="30.750238"
       sodipodi:start="1.586155"
       sodipodi:end="1.5707955"
       sodipodi:arc-type="arc"
       d="M 36.522098,71.061927 A 30.270058,30.750238 0 0 1 6.7189385,39.961117 30.270058,30.750238 0 0 1 37.219427,9.5659834 30.270058,30.750238 0 0 1 67.256823,40.433367 30.270058,30.750238 0 0 1 36.986988,71.065554"
       sodipodi:open="true" /><path
       style="opacity:0.99;fill:#0000ff;fill-opacity:1;stroke:none;stroke-width:0.364348;stroke-opacity:1"
       id="path5"
       sodipodi:type="arc"
       sodipodi:cx="175.3662"
       sodipodi:cy="180.0721"
       sodipodi:rx="29.249308"
       sodipodi:ry="29.619265"
       sodipodi:start="1.586155"
       sodipodi:end="1.5583708"
       sodipodi:arc-type="arc"
       d="m 174.91698,209.68787 a 29.249308,29.619265 0 0 1 -28.79906,-29.86494 29.249308,29.619265 0 0 1 29.29117,-29.37006 29.249308,29.619265 0 0 1 29.20597,29.45693 29.249308,29.619265 0 0 1 -28.88544,29.77928"
       sodipodi:open="true" /><path
       style="opacity:0.99;fill:#6060ff;fill-opacity:1;stroke:none;stroke-width:6.36433;stroke-linecap:round;stroke-dasharray:none;stroke-opacity:1;paint-order:normal"
       id="path11"
       sodipodi:type="arc"
       sodipodi:cx="37.171001"
       sodipodi:cy="18.140493"
       sodipodi:rx="5.8884759"
       sodipodi:ry="3.7267609"
       sodipodi:start="1.586155"
       sodipodi:end="1.5583708"
       sodipodi:open="true"
       sodipodi:arc-type="arc"
       d="m 37.080566,21.866815 a 5.8884759,3.7267609 0 0 1 -5.797832,-3.757673 5.8884759,3.7267609 0 0 1 5.896903,-3.695405 5.8884759,3.7267609 0 0 1 5.879752,3.706336 5.8884759,3.7267609 0 0 1 -5.815222,3.746894" /><path
       style="opacity:0.99;fill:#6060ff;fill-opacity:1;stroke:none;stroke-width:8.05041;stroke-linecap:round;stroke-dasharray:none;stroke-opacity:1;paint-order:normal"
       id="path12"
       sodipodi:type="arc"
       sodipodi:cx="152.73235"
       sodipodi:cy="18.885944"
       sodipodi:rx="6.6245351"
       sodipodi:ry="3.7268491"
       sodipodi:start="1.586155"
       sodipodi:end="1.5583708"
       sodipodi:open="true"
       sodipodi:arc-type="arc"
       d="m 152.63061,22.612354 a 6.6245351,3.7268491 0 0 1 -6.52257,-3.757762 6.6245351,3.7268491 0 0 1 6.63402,-3.695493 6.6245351,3.7268491 0 0 1 6.61472,3.706424 6.6245351,3.7268491 0 0 1 -6.54212,3.746983" /><path
       style="opacity:0.99;fill:#6060ff;fill-opacity:1;stroke:none;stroke-width:8.05041;stroke-linecap:round;stroke-dasharray:none;stroke-opacity:1;paint-order:normal"
       id="path13"
       sodipodi:type="arc"
       sodipodi:cx="29.994421"
       sodipodi:cy="149.51198"
       sodipodi:rx="6.0724902"
       sodipodi:ry="4.2858748"
       sodipodi:start="1.586155"
       sodipodi:end="1.5583708"
       sodipodi:open="true"
       sodipodi:arc-type="arc"
       d="m 29.901159,153.79735 a 6.0724902,4.2858748 0 0 1 -5.979013,-4.32143 6.0724902,4.2858748 0 0 1 6.081181,-4.24981 6.0724902,4.2858748 0 0 1 6.063493,4.26238 6.0724902,4.2858748 0 0 1 -5.996947,4.30903" /><path
       style="opacity:0.99;fill:#6060ff;fill-opacity:1;stroke:none;stroke-width:8.05041;stroke-linecap:round;stroke-dasharray:none;stroke-opacity:1;paint-order:normal"
       id="path14"
       sodipodi:type="arc"
       sodipodi:cx="177.20633"
       sodipodi:cy="160.69247"
       sodipodi:rx="7.1765795"
       sodipodi:ry="4.2858748"
       sodipodi:start="1.586155"
       sodipodi:end="1.5583708"
       sodipodi:open="true"
       sodipodi:arc-type="arc"
       d="m 177.09611,164.97784 a 7.1765795,4.2858748 0 0 1 -7.06611,-4.32142 7.1765795,4.2858748 0 0 1 7.18685,-4.24982 7.1765795,4.2858748 0 0 1 7.16595,4.26239 7.1765795,4.2858748 0 0 1 -7.0873,4.30903" /><path
       style="opacity:0.99;fill:#ff6760;fill-opacity:1;stroke:none;stroke-width:6.92865;stroke-linecap:round;stroke-dasharray:none;stroke-opacity:1;paint-order:normal"
       id="path15"
       sodipodi:type="arc"
       sodipodi:cx="99.736053"
       sodipodi:cy="85.596474"
       sodipodi:rx="8.0966539"
       sodipodi:ry="3.7267971"
       sodipodi:start="1.586155"
       sodipodi:end="1.5583708"
       sodipodi:open="true"
       sodipodi:arc-type="arc"
       d="m 99.611704,89.322831 a 8.0966539,3.7267971 0 0 1 -7.972018,-3.757709 8.0966539,3.7267971 0 0 1 8.108242,-3.695441 8.0966539,3.7267971 0 0 1 8.084662,3.706372 8.0966539,3.7267971 0 0 1 -7.995934,3.74693" /><text
       xml:space="preserve"
       transform="scale(0.26458333)"
       id="text15"
       style="font-style:normal;font-variant:normal;font-weight:normal;font-stretch:normal;font-size:192px;line-height:1.25;font-family:Roboto;-inkscape-font-specification:Roboto;text-align:center;white-space:pre;shape-inside:url(#rect15);display:inline;fill:#000000;fill-opacity:1"><tspan
         x="50.076172"
         y="606.1582"
         id="tspan4"><tspan
           dx="0 113.90625"
           id="tspan3">SS</tspan></tspan></text><text
       xml:space="preserve"
       style="font-style:normal;font-variant:normal;font-weight:normal;font-stretch:normal;font-size:74.5502px;line-height:1.25;font-family:Orbitron;-inkscape-font-specification:Orbitron;text-align:center;text-anchor:middle;fill:#cb0000;fill-opacity:1;stroke-width:0.266258"
       x="33.331497"
       y="130.98363"
       id="text16"
       transform="scale(0.99373512,1.0063044)"><tspan
         sodipodi:role="line"
         id="tspan16"
         style="font-style:normal;font-variant:normal;font-weight:normal;font-stretch:normal;font-size:74.5502px;font-family:Orbitron;-inkscape-font-specification:Orbitron;fill:#008000;fill-opacity:1;stroke-width:0.266258"
         x="33.331497"
         y="130.98363">S</tspan></text><text
       xml:space="preserve"
       style="font-style:normal;font-variant:normal;font-weight:normal;font-stretch:normal;font-size:74.5502px;line-height:1.25;font-family:Orbitron;-inkscape-font-specification:Orbitron;text-align:center;text-anchor:middle;fill:#008000;stroke-width:0.266258"
       x="98.883423"
       y="193.20239"
       id="text17"
       transform="scale(0.99373512,1.0063044)"><tspan
         sodipodi:role="line"
         id="tspan17"
         style="font-style:normal;font-variant:normal;font-weight:bold;font-stretch:normal;font-size:74.5502px;font-family:Orbitron;-inkscape-font-specification:'Orbitron Bold';fill:#008000;stroke-width:0.266258"
         x="98.883423"
         y="193.20239">T</tspan></text><text
       xml:space="preserve"
       style="font-style:normal;font-variant:normal;font-weight:normal;font-stretch:normal;font-size:74.5502px;line-height:1.25;font-family:Orbitron;-inkscape-font-specification:Orbitron;text-align:center;text-anchor:middle;fill:#008000;stroke-width:0.266258"
       x="168.87961"
       y="130.98363"
       id="text18"
       transform="scale(0.99373512,1.0063044)"><tspan
         sodipodi:role="line"
         id="tspan18"
         style="font-style:normal;font-variant:normal;font-weight:normal;font-stretch:normal;font-size:74.5502px;font-family:Orbitron;-inkscape-font-specification:Orbitron;fill:#008000;stroke-width:0.266258"
         x="168.87961"
         y="130.98363">M<tspan
   style="font-size:74.5502px;fill:#008000;stroke-width:0.266258"
   id="tspan19" /></tspan></text></g></svg>
